<svg id="图层_1" data-name="图层 1" xmlns="http://www.w3.org/2000/svg" viewBox="0 0 121.31 68.36"><defs><style>.cls-1{fill:none;stroke:#fff;stroke-miterlimit:10;stroke-width:0.75px;}.cls-2{fill:#ffde52;}.cls-3{fill:#fff;}</style></defs><title>imk-logo-whitebr</title><g id="_编组_" data-name="&lt;编组&gt;"><path class="cls-1" d="M88.76,89.57A1.22,1.22,0,0,0,87.38,91V103.7a1.46,1.46,0,0,0,.31,1,1.39,1.39,0,0,0,1.07.35,1.47,1.47,0,0,0,1.09-.35,1.44,1.44,0,0,0,.33-1V90.93a1.31,1.31,0,0,0-.37-1.06A1.63,1.63,0,0,0,88.76,89.57Z" transform="translate(-87 -45.17)"/><path class="cls-1" d="M175.27,99.06l3.52-3.39a1.43,1.43,0,0,0,.49-1.12,1.47,1.47,0,0,0-.42-.93,1.49,1.49,0,0,0-.9-.43,1.07,1.07,0,0,0-.94.37l-3.31,3.31c.13-2.53.11-5.43-.06-8.8a1.5,1.5,0,0,0-3,.15c.52,10.52-.42,16.44-3,19.22-1.79,1.9-4.63,2.69-9.8,2.72a25.57,25.57,0,0,1-8.9-1.42,20.28,20.28,0,0,0-6.85-1.21c-.66-1.54-1.71-3-1.94-3.8a2.83,2.83,0,0,1-.06-1.59,23.37,23.37,0,0,0,13.2-4l2.26,4.39a1,1,0,1,0,1.78-.92l-2.43-4.72q.69-.59,1.3-1.24l4.31,3.2a1,1,0,0,0,1.19-1.6l-4.21-3.13q.46-.62.86-1.27l5.3,1.84a1,1,0,0,0,.66-1.89l-5-1.74c.11-.24.23-.48.33-.72l.09-.26a15.76,15.76,0,0,0,.61-2l0-.18c1.35-5,3.84-16.73.95-25.13-.83-2.41-6,2.3-9.65,6.06a26.91,26.91,0,0,0-19.25-4.45c-1.75-5.17-4.68-12.61-6.49-10.55-7.39,8.48-9.59,21.32-10.07,24.82a15.81,15.81,0,0,0-.23,4.15l-4.89-.41a1,1,0,1,0-.17,2l5.35.45a17.18,17.18,0,0,0,.49,1.84h0L111.09,88a1,1,0,0,0,.23,2,1,1,0,0,0,.24,0l5.25-1.27a1,1,0,0,0,.25-.12,19.23,19.23,0,0,0,.93,1.81L113.58,94l0,0,0,0a4.29,4.29,0,0,0-1.4-.77,5.05,5.05,0,0,0-1.59-.26,4,4,0,0,0-2.28.66,4.91,4.91,0,0,0-1.54,1.63,3.39,3.39,0,0,0-1.16-1.7,3.49,3.49,0,0,0-2.15-.59,2.43,2.43,0,0,0-1.67.63,4.08,4.08,0,0,0-1.07,1.53V94a.71.71,0,0,0-.28-.57,1.67,1.67,0,0,0-1-.23,2.06,2.06,0,0,0-1.06.21A.66.66,0,0,0,98,94v10.18a.79.79,0,0,0,.33.65,1.58,1.58,0,0,0,1,.26,1.79,1.79,0,0,0,1-.26.77.77,0,0,0,.38-.65V98a4.07,4.07,0,0,1,.18-1.34,2,2,0,0,1,.5-.81,1.67,1.67,0,0,1,.76-.4,4.06,4.06,0,0,1,1-.11,1.81,1.81,0,0,1,1.67.69,4.06,4.06,0,0,1,.42,2.07v6a.79.79,0,0,0,.38.66,1.55,1.55,0,0,0,1,.25,1.89,1.89,0,0,0,1-.27.74.74,0,0,0,.38-.64V98a4.1,4.1,0,0,1,.18-1.34,1.93,1.93,0,0,1,.51-.81,1.75,1.75,0,0,1,.77-.4,4.06,4.06,0,0,1,1-.11,2.69,2.69,0,0,1,1,.17,1.39,1.39,0,0,1,.64.52,2.24,2.24,0,0,1,.31.86,7.56,7.56,0,0,1,.09,1.21v6a.81.81,0,0,0,.3.72,2,2,0,0,0,1.08.18q.78,0,.94-.29a1.17,1.17,0,0,0,.16-.62V96.94a3.83,3.83,0,0,0-.24-1.31,1,1,0,0,0,.19-.11L119.09,92a24.57,24.57,0,0,0,12.1,8.67,19.7,19.7,0,0,0-3.1,3.92c-1.27,2.31-4.56,7.83,7.2,8.25,4.87.18,6.74-.87,7.2-2.33A18,18,0,0,1,148,111.6a28.14,28.14,0,0,0,9.54,1.56h.29c4.44,0,9-.5,12-3.66,1.81-1.91,3-4.64,3.54-8.61l4,3.84a1.12,1.12,0,0,0,.92.35,1.42,1.42,0,0,0,.89-.38,1.28,1.28,0,0,0,.39-.9,1.64,1.64,0,0,0-.57-1.19Z" transform="translate(-87 -45.17)"/><path class="cls-1" d="M182.38,93.18a1.59,1.59,0,0,0-.93.3,1.08,1.08,0,0,0-.43,1v9.51a1,1,0,0,0,.37.78,1.39,1.39,0,0,0,1,.35,1.37,1.37,0,0,0,1-.36,1.06,1.06,0,0,0,.37-.77V94.43a1.08,1.08,0,0,0-.43-1A1.63,1.63,0,0,0,182.38,93.18Z" transform="translate(-87 -45.17)"/><path class="cls-1" d="M182.38,89.12a1.44,1.44,0,1,0,1,.42A1.42,1.42,0,0,0,182.38,89.12Z" transform="translate(-87 -45.17)"/><path class="cls-1" d="M194.83,94a3.46,3.46,0,0,0-1.27-.77,5.08,5.08,0,0,0-1.67-.26,3,3,0,0,0-1.11.19,3.2,3.2,0,0,0-.86.51,3.48,3.48,0,0,0-.65.7,6.28,6.28,0,0,0-.46.78V94.09a.77.77,0,0,0-.38-.65,1.62,1.62,0,0,0-.94-.26,1.73,1.73,0,0,0-1,.26.76.76,0,0,0-.4.65v10.07a.79.79,0,0,0,.38.63,1.57,1.57,0,0,0,1,.28,1.62,1.62,0,0,0,1-.27.78.78,0,0,0,.38-.64V98a4.2,4.2,0,0,1,.18-1.35,2,2,0,0,1,.5-.82,1.67,1.67,0,0,1,.76-.4,4.06,4.06,0,0,1,1-.11,2.69,2.69,0,0,1,1,.17,1.39,1.39,0,0,1,.64.52,2.25,2.25,0,0,1,.31.88,7.77,7.77,0,0,1,.09,1.22v6a.77.77,0,0,0,.38.65,1.71,1.71,0,0,0,1,.26,1.6,1.6,0,0,0,1-.26.77.77,0,0,0,.36-.65V97.09a5.16,5.16,0,0,0-.29-1.81A3.41,3.41,0,0,0,194.83,94Z" transform="translate(-87 -45.17)"/><path class="cls-1" d="M207.6,93.57a1.55,1.55,0,0,0-2.05,0,1.16,1.16,0,0,0-.33.73v.86A3.35,3.35,0,0,0,204,93.52a3.16,3.16,0,0,0-1.84-.55,6.21,6.21,0,0,0-1.79.26,3.59,3.59,0,0,0-1.52.92,4.7,4.7,0,0,0-1.06,1.79,8.8,8.8,0,0,0-.4,2.88,8.34,8.34,0,0,0,.35,2.52,5.3,5.3,0,0,0,1,1.84,4,4,0,0,0,1.5,1.12,4.82,4.82,0,0,0,1.93.38,3.63,3.63,0,0,0,1.86-.46,2.69,2.69,0,0,0,1.17-1.44v1.51a1.47,1.47,0,0,1-.16.64,2,2,0,0,1-.48.62,2.41,2.41,0,0,1-.79.45,3.17,3.17,0,0,1-1.08.17,4.34,4.34,0,0,1-1.92-.28,5,5,0,0,1-1.23-.78,1,1,0,0,0-.81-.31.85.85,0,0,0-.62.55,1.87,1.87,0,0,0-.21.72,1.32,1.32,0,0,0,.09.55,1.28,1.28,0,0,0,.28.42,4.07,4.07,0,0,0,.38.33l.68.49a4.39,4.39,0,0,0,.78.41,4.75,4.75,0,0,0,1,.28,8.32,8.32,0,0,0,1.37.1,7.05,7.05,0,0,0,2.17-.28,5.16,5.16,0,0,0,1.73-.87,4.2,4.2,0,0,0,1.14-1.39,3.91,3.91,0,0,0,.42-1.81v-10A1.16,1.16,0,0,0,207.6,93.57Zm-3,7.68a2.14,2.14,0,0,1-1.82.77,3.66,3.66,0,0,1-1.09-.15,1.85,1.85,0,0,1-.83-.53,2.51,2.51,0,0,1-.53-1,5.61,5.61,0,0,1-.18-1.57,3.81,3.81,0,0,1,.7-2.65,2.38,2.38,0,0,1,1.89-.77q2.4,0,2.42,3.44A4,4,0,0,1,204.63,101.25Z" transform="translate(-87 -45.17)"/><path class="cls-1" d="M94.32,89.59a1,1,0,0,0-1.16.64l-.72,3.16c-.1.43.26.85.81.93h.18a1,1,0,0,0,1-.66l.72-3.16C95.23,90.08,94.86,89.67,94.32,89.59Z" transform="translate(-87 -45.17)"/><g id="_编组_2" data-name="&lt;编组&gt;"><path id="_路径_" data-name="&lt;路径&gt;" class="cls-2" d="M118.27,67.62l18.95-3.45a.53.53,0,0,0,.43-.52l0-10.11a.53.53,0,0,0-.95-.33L133,58.1a.53.53,0,0,1-.84,0l-6.81-8.77a.53.53,0,0,0-.91.13l-4,9.88a.53.53,0,0,1-.74.27l-5.4-2.88a.53.53,0,0,0-.74.67l4.12,9.9A.53.53,0,0,0,118.27,67.62Z" transform="translate(-87 -45.17)"/><circle id="_路径_2" data-name="&lt;路径&gt;" class="cls-2" cx="124.06" cy="46.44" r="1.27" transform="translate(-29.99 115.52) rotate(-80.12)"/><circle id="_路径_3" data-name="&lt;路径&gt;" class="cls-2" cx="112.64" cy="54.65" r="1.27" transform="translate(-47.53 111.07) rotate(-80.12)"/><circle id="_路径_4" data-name="&lt;路径&gt;" class="cls-2" cx="138.09" cy="50.27" r="1.27" transform="translate(-22.14 132.51) rotate(-80.12)"/></g><path id="_路径_5" data-name="&lt;路径&gt;" class="cls-3" d="M117.66,67.27l.27.64a1,1,0,0,0,.83.41l18.52-3.78a.55.55,0,0,0,.38-.58v-.76Z" transform="translate(-87 -45.17)"/><circle id="_路径_6" data-name="&lt;路径&gt;" class="cls-3" cx="127.36" cy="81.59" r="9.03" transform="translate(-67.17 142.79) rotate(-77.34)"/><ellipse id="_路径_7" data-name="&lt;路径&gt;" cx="127.35" cy="81.44" rx="7.29" ry="6.2" transform="translate(-67.03 142.67) rotate(-77.34)"/><ellipse id="_路径_8" data-name="&lt;路径&gt;" class="cls-3" cx="124.84" cy="79.09" rx="3.69" ry="2.23" transform="translate(-89.38 109.11) rotate(-62.94)"/><circle id="_路径_9" data-name="&lt;路径&gt;" class="cls-3" cx="148.73" cy="87.31" r="9.03" transform="translate(-56.07 168.11) rotate(-77.34)"/><ellipse id="_路径_10" data-name="&lt;路径&gt;" cx="148.72" cy="87.16" rx="7.29" ry="6.2" transform="translate(-55.92 167.99) rotate(-77.34)"/><ellipse id="_路径_11" data-name="&lt;路径&gt;" class="cls-3" cx="146.21" cy="84.81" rx="3.69" ry="2.23" transform="translate(-82.83 131.26) rotate(-62.94)"/><ellipse id="_路径_12" data-name="&lt;路径&gt;" class="cls-3" cx="135.95" cy="95.48" rx="1.6" ry="1.07" transform="translate(-53.44 181.14) rotate(-87.03)"/></g></svg>